<svg width="279" height="279" viewBox="0 0 279 279" fill="none" xmlns="http://www.w3.org/2000/svg">
<g clip-path="url(#clip0_1_4)">
<path d="M225.235 94.987H200.065V69.762C200.065 40.292 176.784 16.326 148.163 16.326C119.569 16.326 96.288 40.291 96.288 69.762V94.987H69.283C65.449 94.987 62.326 98.164 62.326 102.135V152.202C62.326 197.996 96.726 235.656 140.33 239.299V263.867H119.734C115.9 263.867 112.805 267.044 112.805 271.015C112.805 274.959 115.9 278.163 119.734 278.163H173.854C177.688 278.163 180.811 274.959 180.811 271.015C180.811 267.044 177.689 263.867 173.854 263.867H154.189V239.299C197.792 235.656 232.165 197.997 232.165 152.202V102.135C232.165 98.165 229.07 94.987 225.235 94.987ZM218.279 152.203C218.279 192.519 186.426 225.331 147.26 225.331C108.094 225.331 76.213 192.519 76.213 152.203V109.285H96.289V150.998C96.289 180.441 119.57 204.434 148.164 204.434C176.785 204.434 200.066 180.441 200.066 150.998V109.285H218.28C218.279 109.284 218.279 152.203 218.279 152.203Z" fill="#444EB4"/>
<path d="M169.852 114.513V134.671C169.852 156.253 152.816 173.81 131.836 173.81C110.884 173.81 93.848 156.254 93.848 134.671V114.513H101.024C104.831 114.513 107.953 111.309 107.953 107.364C107.953 103.42 104.831 100.216 101.024 100.216H93.848V63.433H101.024C104.831 63.433 107.953 60.229 107.953 56.284C107.953 52.339 104.831 49.135 101.024 49.135H94.095C96.177 29.579 112.309 14.296 131.837 14.296C151.393 14.296 167.525 29.579 169.606 49.135H162.348C158.514 49.135 155.419 52.34 155.419 56.284C155.419 60.228 158.514 63.433 162.348 63.433H169.853V100.216H162.348C158.514 100.216 155.419 103.42 155.419 107.364C155.419 111.308 158.514 114.513 162.348 114.513H169.852Z" fill="#302C58"/>
<path d="M53.458 137.824C49.278 137.824 46.099 141.483 46.551 145.638C47.688 156.081 50.624 165.969 55.025 174.974C56.2 177.381 58.632 178.923 61.311 178.923H61.374C66.496 178.923 69.9 173.555 67.627 168.967C63.845 161.342 61.325 152.947 60.355 144.079C59.968 140.532 57.026 137.824 53.458 137.824Z" fill="#222051"/>
<path d="M208.909 78.661H183.739V53.436C183.738 23.965 160.458 0 131.836 0C103.242 0 79.961 23.965 79.961 53.436V78.661H52.956C49.122 78.661 45.999 81.838 45.999 85.81V126.628C45.999 130.462 49.108 133.571 52.942 133.571C56.776 133.571 59.885 130.462 59.885 126.628V92.958H79.961V134.671C79.961 164.114 103.242 188.107 131.836 188.107C160.457 188.107 183.738 164.114 183.738 134.671V92.958H201.952V135.876C201.952 176.192 170.099 209.004 130.933 209.004C110.405 209.004 91.885 199.988 78.908 185.603C77.544 184.091 75.643 183.176 73.606 183.176C67.583 183.176 64.302 190.314 68.304 194.814C82.374 210.639 102.012 221.135 124.005 222.973V247.541H103.409C99.575 247.541 96.48 250.718 96.48 254.689C96.48 258.633 99.575 261.838 103.409 261.838H157.529C161.363 261.838 164.486 258.634 164.486 254.689C164.486 250.718 161.364 247.541 157.529 247.541H137.864V222.973C181.467 219.33 215.84 181.671 215.84 135.876V85.809C215.838 81.838 212.743 78.661 208.909 78.661ZM169.852 100.216H162.347C158.513 100.216 155.418 103.42 155.418 107.364C155.418 111.308 158.513 114.513 162.347 114.513H169.852V134.671C169.852 156.253 152.816 173.81 131.836 173.81C110.884 173.81 93.848 156.254 93.848 134.671V114.513H101.024C104.831 114.513 107.953 111.309 107.953 107.364C107.953 103.42 104.831 100.216 101.024 100.216H93.848V63.433H101.024C104.831 63.433 107.953 60.229 107.953 56.284C107.953 52.339 104.831 49.135 101.024 49.135H94.095C96.177 29.579 112.309 14.296 131.837 14.296C151.393 14.296 167.525 29.579 169.606 49.135H162.348C158.514 49.135 155.419 52.34 155.419 56.284C155.419 60.228 158.514 63.433 162.348 63.433H169.853V100.216H169.852V100.216Z" fill="#222051"/>
</g>
<defs>
<clipPath id="clip0_1_4">
<rect width="278.163" height="278.163" fill="white"/>
</clipPath>
</defs>
</svg>
